<?xml version="1.0" standalone="no"?>
<!DOCTYPE svg PUBLIC "-//W3C//DTD SVG 20010904//EN"
 "http://www.w3.org/TR/2001/REC-SVG-20010904/DTD/svg10.dtd">
<svg version="1.0" xmlns="http://www.w3.org/2000/svg"
 width="400.000000pt" height="400.000000pt" viewBox="0 0 400.000000 400.000000"
 preserveAspectRatio="xMidYMid meet">

<g transform="translate(0.000000,400.000000) scale(0.100000,-0.100000)"
fill="#000000" stroke="none">
<path d="M2845 3879 c-64 -26 -219 -129 -314 -210 -68 -56 -77 -61 -100 -52
-55 22 -65 23 -31 4 43 -25 63 -26 81 -5 27 32 238 184 310 223 41 22 92 43
115 46 57 10 93 -24 149 -139 41 -85 104 -273 120 -359 9 -48 19 -52 165 -66
207 -21 373 -63 423 -108 27 -25 22 -102 -13 -190 -30 -75 -126 -249 -182
-331 l-30 -43 59 -67 c151 -170 243 -306 265 -387 10 -36 9 -47 -4 -67 -36
-54 -238 -130 -483 -182 l-110 -22 -6 -35 c-4 -19 -12 -80 -18 -136 -22 -207
-71 -366 -121 -393 -47 -25 -230 37 -285 98 -17 18 -42 39 -55 45 -13 7 -28
26 -32 42 -5 17 -18 51 -29 77 -14 35 -19 71 -19 145 0 54 -3 108 -6 120 -7
26 -39 39 -58 24 -11 -9 -15 -5 -20 19 -6 35 -29 48 -51 30 -11 -9 -15 -33
-15 -81 l0 -69 -33 0 c-55 0 -90 -57 -49 -79 14 -7 25 -6 40 4 26 19 52 9 52
-19 0 -38 -21 -49 -46 -25 -31 29 -59 22 -59 -16 0 -25 6 -33 42 -50 23 -11
42 -23 43 -27 0 -18 -292 -228 -317 -228 -6 0 -37 33 -69 73 -80 98 -171 186
-233 222 l-50 30 -23 100 -23 100 -85 12 c-47 6 -87 12 -88 12 -2 1 8 15 22
31 14 17 33 54 41 83 24 82 37 242 27 338 -11 103 -8 116 29 124 50 11 64 60
28 96 -20 20 -20 23 -5 31 37 21 8 74 -45 85 -23 4 -28 10 -24 24 14 42 -23
79 -80 79 -18 0 -24 6 -27 28 -2 16 -12 31 -25 37 -16 7 -21 15 -17 27 3 10 2
27 -1 39 -6 17 -13 20 -41 17 -29 -3 -34 -1 -34 17 0 46 -62 62 -95 25 -18
-20 -19 -20 -39 -1 -56 51 -144 79 -161 51 -10 -16 -25 -11 -25 9 0 69 140
133 423 196 60 13 110 25 112 27 2 1 8 55 14 118 23 238 60 370 115 405 21 14
33 15 76 6 66 -14 217 -71 338 -127 52 -24 97 -43 99 -41 5 5 -186 93 -287
132 -47 18 -113 39 -147 46 -54 11 -64 11 -87 -4 -51 -34 -87 -138 -112 -326
-7 -58 -14 -127 -14 -153 l0 -47 -57 -11 c-137 -26 -299 -72 -366 -103 -93
-44 -122 -75 -120 -127 l2 -40 -52 0 c-96 0 -160 -56 -106 -94 22 -15 22 -15
-19 -32 -23 -9 -56 -32 -72 -51 -29 -33 -30 -36 -16 -59 15 -22 15 -24 -15
-46 -63 -47 -92 -134 -48 -145 17 -5 20 -11 14 -39 -6 -37 8 -74 29 -74 8 0
16 -17 19 -42 13 -90 37 -148 82 -195 40 -41 43 -47 30 -67 -34 -54 -25 -145
17 -167 50 -27 98 23 98 103 l1 43 13 -37 c19 -52 63 -124 103 -169 29 -32 34
-44 29 -71 l-5 -33 11 32 c10 30 8 35 -31 79 -23 26 -55 77 -72 113 -71 151
-82 171 -89 166 -5 -3 -6 -15 -2 -28 5 -22 5 -22 -16 -4 -27 24 -44 68 -40
103 3 25 8 29 36 32 18 2 40 -2 47 -8 23 -19 32 -4 37 58 6 60 49 176 56 151
8 -23 34 -49 51 -49 9 0 33 8 53 19 37 18 37 18 40 -3 4 -29 47 -33 79 -8 l24
20 17 -29 c20 -33 43 -37 70 -12 17 15 18 15 18 -3 0 -41 40 -57 71 -28 14 12
22 13 38 4 12 -6 26 -8 31 -5 5 3 12 -6 16 -20 10 -38 -2 -324 -15 -366 -16
-53 -51 -101 -95 -129 -37 -24 -38 -26 -32 -73 6 -52 20 -77 42 -77 19 0 18
-17 -11 -108 -34 -107 -61 -146 -105 -150 -51 -5 -111 15 -166 56 -47 36 -154
179 -154 207 0 9 14 15 42 17 34 2 43 7 46 23 2 12 0 16 -5 9 -4 -7 -44 -15
-88 -18 -276 -23 -409 -64 -560 -171 -162 -115 -337 -363 -420 -595 -61 -172
-79 -265 -79 -420 -1 -198 25 -297 100 -380 75 -83 197 -124 374 -124 130 0
228 21 377 79 79 31 99 35 227 41 281 13 707 -41 869 -111 17 -7 18 0 12 126
-3 74 -8 147 -10 162 l-5 29 48 -43 c26 -23 76 -56 112 -73 60 -29 73 -31 165
-30 80 0 112 5 159 24 79 30 149 96 185 174 57 122 71 234 72 556 0 222 1 236
20 256 11 12 23 40 26 63 l6 40 36 -18 c66 -34 179 -64 216 -57 44 9 76 50
104 134 24 69 55 245 66 362 l6 76 92 18 c232 46 453 128 496 182 12 15 21 41
21 59 0 68 -109 239 -259 409 -34 38 -61 73 -61 77 0 5 20 40 45 79 150 234
215 412 174 479 -37 59 -228 109 -515 136 l-72 7 -17 61 c-63 236 -143 419
-200 463 -38 29 -73 30 -140 3z m-1705 -1367 c19 -18 19 -20 2 -90 l-17 -72
-41 0 c-61 0 -77 -17 -72 -74 l3 -48 -27 33 c-29 35 -53 97 -64 164 -5 35 -2
43 21 63 23 20 27 21 41 7 21 -20 33 -19 85 9 24 14 45 25 47 25 2 1 12 -7 22
-17z m-46 -348 c32 -32 14 -137 -26 -150 -46 -14 -70 56 -43 124 18 45 42 54
69 26z m1503 -237 c6 -13 14 -49 18 -80 9 -67 25 -76 25 -14 0 23 5 49 10 57
19 29 30 -12 30 -116 0 -86 4 -112 30 -182 l30 -82 -35 -14 c-19 -8 -40 -26
-46 -39 -10 -23 -15 -24 -78 -21 l-66 3 61 -10 c61 -10 62 -11 66 -45 4 -32 2
-34 -26 -34 -37 0 -156 20 -156 27 0 9 34 63 40 63 4 0 7 6 8 13 0 6 12 42 25
78 14 36 22 70 19 76 -4 6 -24 18 -44 26 -27 11 -38 22 -38 36 0 25 25 28 34
5 4 -10 15 -14 33 -12 33 4 54 48 37 76 -13 21 -60 28 -79 12 -12 -10 -16 -9
-22 5 -10 27 23 46 67 39 l37 -6 -5 81 c-5 82 5 103 25 58z m-883 -38 l93 -12
17 -76 c20 -96 20 -94 -6 -80 -12 7 -65 26 -117 44 -95 32 -96 33 -104 71 -8
42 -4 64 13 64 6 0 53 -5 104 -11z m-535 -136 c42 -116 158 -234 253 -257 l27
-6 -21 -47 c-34 -78 -8 -165 57 -188 73 -26 109 131 50 218 -11 15 -9 22 10
41 25 25 60 113 77 190 6 28 12 53 14 55 2 2 33 -7 70 -20 l67 -24 -6 -90
c-15 -218 -75 -380 -168 -445 -39 -28 -121 -38 -173 -20 -54 18 -126 79 -183
156 -65 89 -248 453 -231 459 14 5 67 11 113 13 27 2 33 -3 44 -35z m-140 -70
c22 -46 37 -83 33 -83 -4 -1 -61 -7 -127 -15 -66 -7 -123 -10 -126 -7 -7 9
-49 112 -49 123 0 13 193 71 222 65 4 0 25 -38 47 -83z m869 -34 l82 -50 0
-45 c0 -43 -1 -45 -22 -38 -13 4 -57 17 -98 28 l-75 21 3 68 c2 45 7 67 15 67
7 0 50 -23 95 -51z m-1139 -12 c113 -304 75 -656 -107 -989 -20 -37 -34 -69
-32 -71 3 -3 41 2 85 10 45 8 177 16 305 19 203 4 225 6 228 22 10 52 25 82
42 82 20 0 30 -19 30 -58 0 -43 12 -51 80 -54 58 -3 65 -5 68 -25 3 -22 -19
-32 -98 -46 -14 -2 3 -5 38 -6 48 -1 64 -5 69 -17 9 -25 -23 -44 -76 -46 -39
-1 -41 -2 -11 -5 63 -6 80 -13 80 -31 0 -10 -6 -24 -12 -31 -11 -11 -10 -13 2
-9 23 7 26 65 3 71 -51 13 78 4 192 -13 158 -24 282 -55 353 -86 l52 -23 0
-52 c0 -49 -1 -51 -22 -45 -163 47 -314 72 -557 91 -91 7 -157 13 -147 14 11
0 17 3 14 6 -12 12 -149 -32 -253 -81 -146 -69 -239 -101 -342 -119 -211 -37
-410 0 -506 93 -84 81 -113 179 -111 382 1 127 5 160 32 261 90 348 294 653
524 784 24 14 46 25 50 25 4 0 16 -24 27 -53z m1322 -134 c36 -43 80 -98 100
-123 19 -25 58 -75 86 -111 l52 -65 -29 -45 c-32 -48 -84 -168 -76 -176 3 -3
28 41 56 98 55 110 159 279 171 279 5 0 34 -7 66 -15 31 -8 77 -15 100 -15 24
0 43 -4 43 -10 0 -14 55 -40 84 -40 36 0 40 -33 33 -324 -7 -287 -19 -363 -75
-469 -63 -122 -157 -172 -322 -172 -82 0 -103 4 -153 27 -31 15 -82 51 -113
80 l-56 53 6 70 c3 39 17 129 32 200 37 185 31 258 -31 430 -47 127 -48 134
-53 268 -2 84 -1 137 5 137 6 0 39 -35 74 -77z m398 -34 c-17 -35 -59 -106
-92 -158 l-61 -94 -34 39 c-19 21 -42 51 -53 65 l-19 27 68 40 c37 22 100 65
141 96 41 31 76 54 78 52 3 -2 -10 -33 -28 -67z m-1328 -38 l35 -69 -55 -6
c-31 -3 -105 -11 -164 -17 -60 -6 -111 -8 -114 -5 -7 6 -25 137 -20 142 2 3
200 20 252 23 27 1 33 -5 66 -68z m709 18 c106 -24 116 -31 123 -91 3 -29 8
-60 12 -69 5 -14 -5 -13 -78 6 -46 13 -107 26 -136 30 -40 5 -51 11 -47 21 3
8 13 40 22 70 12 42 19 54 32 50 9 -2 42 -10 72 -17z m924 -20 c13 -37 0 -78
-29 -91 -48 -22 -84 47 -54 103 16 31 71 22 83 -12z m-1314 -98 c6 -12 24 -24
41 -28 23 -4 27 -8 18 -19 -15 -18 -53 -18 -68 0 -21 25 -32 80 -24 121 l7 40
7 -46 c4 -26 12 -56 19 -68z m-158 -117 c26 -25 67 -54 91 -64 88 -40 196 -16
257 58 l29 35 108 -17 c59 -10 139 -30 177 -44 68 -26 70 -28 88 -79 10 -29
21 -71 24 -94 7 -39 6 -42 -12 -35 -108 43 -393 94 -649 117 -124 11 -517 6
-573 -8 -23 -6 -24 -5 -17 53 12 105 -1 98 205 113 219 17 217 17 272 -35z
m343 -243 c237 -36 435 -87 435 -112 0 -12 -31 -163 -34 -166 -1 -1 -35 9 -75
23 -141 49 -334 81 -630 105 -110 8 -196 8 -365 -1 -121 -7 -224 -14 -228 -17
-12 -7 -9 7 21 97 l29 85 98 6 c196 13 609 2 749 -20z m-403 -253 c-5 -7 -15
-32 -21 -55 l-11 -41 -113 5 c-99 5 -265 -5 -410 -24 l-49 -6 26 51 c32 62 24
61 291 71 316 12 299 13 287 -1z m323 -14 c167 -20 307 -48 393 -79 l68 -26
-1 -79 c0 -67 -2 -79 -15 -74 -82 35 -319 87 -445 99 -93 9 -105 13 -105 35 0
27 -33 41 -87 38 l-47 -3 -9 45 c-5 25 -14 51 -19 58 -12 14 49 11 267 -14z"/>
<path d="M1375 360 c-13 -5 -14 -9 -5 -9 8 0 24 4 35 9 13 5 14 9 5 9 -8 0
-24 -4 -35 -9z"/>
<path d="M2677 2883 c-134 -126 -252 -236 -264 -246 -22 -19 -22 -18 -90 45
-37 35 -85 76 -106 92 l-38 29 -38 -18 c-45 -20 -126 -99 -140 -136 -11 -30
-3 -45 76 -135 58 -66 199 -192 265 -235 59 -40 85 -37 159 18 113 82 619 614
619 650 0 30 -151 163 -187 163 -8 0 -123 -102 -256 -227z"/>
<path d="M1342 2358 c-8 -10 4 -13 54 -13 54 0 62 2 47 13 -9 6 -33 12 -54 12
-20 0 -41 -6 -47 -12z"/>
<path d="M1640 2345 c0 -14 5 -25 10 -25 6 0 10 11 10 25 0 14 -4 25 -10 25
-5 0 -10 -11 -10 -25z"/>
<path d="M1564 2330 c3 -14 10 -53 17 -87 14 -75 10 -89 -33 -102 l-33 -9 31
-1 c16 -1 39 5 49 13 18 13 18 19 8 77 -6 35 -18 80 -27 99 -12 27 -15 29 -12
10z"/>
<path d="M1455 2070 c23 -43 49 -60 89 -59 l41 0 -44 14 c-24 7 -55 24 -69 37
-14 13 -22 16 -17 8z"/>
<path d="M2352 2034 c-20 -14 -21 -17 -8 -42 19 -37 85 -112 98 -112 12 0 6
41 -18 119 -16 55 -32 63 -72 35z m57 -50 c7 -26 10 -48 8 -50 -2 -3 -21 14
-42 37 -29 32 -34 43 -24 50 31 19 47 9 58 -37z"/>
<path d="M2184 1855 c-3 -20 -3 -39 1 -43 11 -11 159 -8 164 3 5 11 -85 59
-131 70 -25 6 -27 4 -34 -30z m86 -10 l45 -24 -62 -1 c-62 0 -69 4 -57 34 8
21 20 20 74 -9z"/>
</g>
</svg>
